<svg width="342" height="383" viewBox="0 0 342 383" fill="none" xmlns="http://www.w3.org/2000/svg">
<path d="M29.4448 19.0693C38.4137 13.8029 49.2439 13.8029 58.382 19.0693L72.0891 27.0538C63.9663 31.3008 58.2128 38.7757 56.0129 47.9493L16.4146 221.229L15.0609 223.608V44.042C14.8916 33.6792 20.3068 24.3357 29.4448 19.0693ZM15.5685 257.075C15.2301 256.395 14.384 254.526 15.5685 252.488L49.0747 194.218L122.856 65.787L124.548 62.899C125.733 60.8604 127.763 60.5206 128.61 60.5206C129.456 60.5206 131.486 60.6905 132.671 62.899L147.563 88.7211L240.128 249.6L241.82 252.488C242.328 253.337 242.497 254.017 242.497 254.866C242.497 255.885 242.158 256.735 241.82 257.245C241.481 257.924 240.297 259.623 237.759 259.623H207.975H23.0143H19.6299C17.2608 259.453 16.0762 257.754 15.5685 257.075ZM254.681 245.013L184.792 123.547L278.711 211.206C283.11 215.284 284.972 221.399 283.618 227.345C282.264 233.291 278.034 237.878 272.28 239.747L254.681 245.013ZM299.017 224.627C299.356 215.453 295.802 206.62 289.033 200.164L159.408 79.2077L158.054 76.6595L312.724 166.527C321.693 171.794 327.108 181.137 327.108 191.67C327.108 202.203 321.693 211.546 312.724 216.812L299.017 224.627ZM111.687 55.2543C111.687 55.2543 111.687 55.4242 111.687 55.2543L41.7981 176.89L70.3968 51.347C71.7506 45.4011 75.9812 40.8143 81.7348 39.1154C87.4884 37.2467 93.5804 38.7757 97.9802 42.8529L111.687 55.2543ZM19.4607 274.403C19.6299 274.403 19.6299 274.403 19.4607 274.403H159.239L36.5522 312.286C30.7986 314.155 24.7066 312.626 20.1376 308.549C15.7378 304.472 13.8763 298.356 15.2301 292.41L19.4607 274.403ZM14.8916 323.159C22.6759 328.085 31.9832 329.445 40.952 326.557L210.175 274.403H213.052L58.2128 364.101C49.2439 369.367 38.4137 369.367 29.2756 364.101C20.3068 358.834 14.8916 349.491 14.8916 338.958V323.159V323.159ZM65.8278 5.98836C52.1207 -1.99612 35.7061 -1.99612 21.999 5.98836C8.12271 13.9728 0 28.243 0 44.042V254.526V254.696V254.866V338.958C0 354.927 8.12271 369.027 21.999 377.012C35.7061 384.996 52.1207 384.996 65.8278 377.012L247.235 271.854C247.404 271.685 247.573 271.685 247.743 271.515L320.17 229.554C333.877 221.569 342 207.299 342 191.5C342 175.531 333.877 161.261 320.17 153.446L138.594 48.1192C138.425 48.1192 138.425 47.9493 138.255 47.9493L65.8278 5.98836Z" fill="#191919"/>
</svg>
